<svg id="Layer_1" data-name="Layer 1" xmlns="http://www.w3.org/2000/svg" viewBox="0 0 279.6 349.66">
    <defs>
        <style>
            .cls-1{fill:#f78e1e;}.cls-2{fill:#f5b03e;}.cls-3{fill:#fecc8a;}.cls-4{fill:#cb6d28;}.cls-5{fill:#db1f29;}.cls-6{fill:#ed6d31;}.cls-7{fill:#fac02b;}</style>
    </defs>
    <path class="cls-1"
        d="M350,163.44l-182,111.22-5.56,6.18Q157,287,148.29,296.75t-18.38,20.86q-9.73,11.11-18.54,21.31T96.85,356.07q-5.71,6.94-6,8.5a32.61,32.61,0,0,0-.47,8,25.64,25.64,0,0,0,2.32,10.19q2.16,4.63,8,4.64A49.32,49.32,0,0,0,114.92,385a157.87,157.87,0,0,0,21.32-9q13.29-6.5,34.91-18.23a505.28,505.28,0,0,0,60.56-39.85q28.11-21.63,50.66-41.09T317,244.69L329,232l4.18-.16a27.79,27.79,0,0,0,9.42-2.31,25.55,25.55,0,0,0,10-6.34,59.21,59.21,0,0,0,8.19-10.35,50.64,50.64,0,0,0,5.87-13.9,36,36,0,0,0,.92-15.45,19.35,19.35,0,0,0-5.25-9.57,59.5,59.5,0,0,0-8.34-7.57Z"
        transform="translate(-88.5 -37.77)" />
    <path class="cls-2"
        d="M318.21,207.62,139,100.42l-3.86-3.25q-3.85-3.24-8-7t-5.41-4.94q-1.55-1.55-3.24-7.11A49.36,49.36,0,0,1,116.78,64a25.64,25.64,0,0,1,5.4-15.6q5.41-7.26,17.15-9.73,8-1.55,20.55-.31a216.9,216.9,0,0,1,25.18,4,189.47,189.47,0,0,1,20.7,5.57q7.71,2.46,18.53,6.17t21,7.73A131.27,131.27,0,0,1,262,69.52q9.58,5.57,22.56,14.21t24.71,16.69a160.9,160.9,0,0,1,23.64,20.85,188,188,0,0,1,22.4,28.89q10.18,16.36,11.27,24.87l1.08,8.49-1.54-2.62a19.53,19.53,0,0,0-4.94-5.26,14.28,14.28,0,0,0-9-2.62q-4,0-8,3.4a52.77,52.77,0,0,0-7.41,7.72,56.48,56.48,0,0,0-5.25,7.72l-1.86,3.4Z"
        transform="translate(-88.5 -37.77)" />
    <path class="cls-3"
        d="M286.39,159.73l-25-29L213.17,102l-40.78-5.25L144,86.51l-4.79.31a76.33,76.33,0,0,0-9.58,1.24c-3.19.62-5,1.54-5.41,2.78q0,.93-1.23,9.58T120,122.51q-1.69,13.44-3.71,28.88t-3.86,30.28q-1.85,14.84-3.24,26.41t-2,17.15q-.93,5.25-3.09,18.07t-4.79,29.51q-2.62,16.68-5.25,34.45T89.9,340.47A230.49,230.49,0,0,0,88.51,366q.15,10,3.24,11.58,4,1.86,11.9-1.54t20.54-9a64.47,64.47,0,0,0,12.21-6.8q5.08-3.71,8.65-6.18t5.71-1.23c1.86,1.23,2.94,3.5,3.25,6.79s.46,6.9.46,10.82a24.73,24.73,0,0,0,1.85,10c1.24,2.78,3.81,4.17,7.73,4.17s6.54-1.65,7.88-4.95a36.78,36.78,0,0,0,2.31-12.2q.31-7.26.31-14.67a35.36,35.36,0,0,1,1.86-12.36q1.84-5,7.41-5.25a4.36,4.36,0,0,1,4.48,3.39,39.35,39.35,0,0,1,1.54,8,29.14,29.14,0,0,0,2,8.34,5.8,5.8,0,0,0,5.87,3.71c3.09.2,5.25-1,6.49-3.56a31.75,31.75,0,0,0,2.63-9.27q.76-5.4,1.39-9.73.92-5.25,1.7-11.43t1.08-10.5c.2-2.89.31-4.33.31-4.33l5.87-4.94q5.87-4.95,14.52-12.36t17.61-15q9-7.58,15.13-13.13,8.35-6.8,17.46-15.14t17.3-16.07q8.19-7.72,14.06-13.28t7.1-7.11a21.64,21.64,0,0,0,4.33-7.57l1.54-4.48L314.5,178Z"
        transform="translate(-88.5 -37.77)" />
    <path class="cls-4"
        d="M293.5,155.1q-4-2.16-8.65-9.11a123.64,123.64,0,0,0-13.91-16.53q-9.27-9.59-26.57-19.47-17.61-9.88-32.28-13.59T188,92.23q-9.42-.47-10.66-.77-2.16-.31-9.58-5.41a48.45,48.45,0,0,0-17.91-7.26q-9.9-1.86-15.92-.46t-9.11,4.17a5.75,5.75,0,0,0-2,6.49l1.08,4,6.49-2.32q6.49-2.31,17-.15a31.81,31.81,0,0,1,10.35,3.55A74.54,74.54,0,0,1,165,99a31.11,31.11,0,0,0,8.65,4.48q4,1.55,12.36,1.7a109,109,0,0,1,20.86,2.93q12.51,2.77,29.81,12,14.83,7.73,23.17,15.76a108.13,108.13,0,0,1,13,14.52,62.09,62.09,0,0,0,8,9.57,41.46,41.46,0,0,0,12.67,8q7.41,3.09,16.68,12a35.2,35.2,0,0,1,6.95,10.51q2.94,6.48,5.41,11.74c1.64,3.5,3.5,5,5.56,4.63,2.88-.61,3.86-3.76,2.93-9.42s-3.45-11.89-7.57-18.69q-7.09-12-15.13-16.07T293.5,155.1Z"
        transform="translate(-88.5 -37.77)" />
    <path class="cls-5"
        d="M253.33,186.92l-3.7-1.39a45.19,45.19,0,0,0-8-2.16q-4.32-.78-6.18,1.08-1.54,1.86-2.47,8.65a87.33,87.33,0,0,0-.77,13.75c.1,4.63.46,7.88,1.08,9.73s2.27,4.07,4.94,6.64a72.35,72.35,0,0,0,8.65,7.11A36.6,36.6,0,0,0,254,234.5q3.41,1.55,12.05,1.39a48.24,48.24,0,0,0,14.21-2q3.41-1.23,7.88-5.56a54,54,0,0,0,8-9.89,31.17,31.17,0,0,0,4.48-9.88,33.38,33.38,0,0,0,0-6.64c-.2-3.2-.31-4.79-.31-4.79Z"
        transform="translate(-88.5 -37.77)" />
    <path class="cls-6"
        d="M286.39,172.09a25.2,25.2,0,0,0-7.72-3.4,62.32,62.32,0,0,0-11.13-2.16,25.1,25.1,0,0,0-9.88.62,29.62,29.62,0,0,0-8.5,4.48,66.63,66.63,0,0,0-8,6.8l-5.41,5.4c-1,1.24-1.59,3.86-1.7,7.88a79.77,79.77,0,0,0,.62,12c.52,4,1.08,6.64,1.7,7.88s2.32,3,5.1,5.25,5.66,4.43,8.65,6.49,5,3.19,6,3.4a26,26,0,0,0,6.49.77,70.06,70.06,0,0,0,9.27-.31,43.1,43.1,0,0,0,6.8-1.08c1.64-.62,4.12-2.53,7.41-5.72a82.23,82.23,0,0,0,9.42-11q4.49-6.16,4.79-10.81a20.81,20.81,0,0,0-2.16-10,57,57,0,0,0-5.87-10A32.06,32.06,0,0,0,286.39,172.09Z"
        transform="translate(-88.5 -37.77)" />
    <path class="cls-5"
        d="M166.52,216.27l-3.25,3.09q-3.24,3.09-7.56,7.42a99.81,99.81,0,0,0-7.42,8.18q-3.09,3.87-2.47,5.1a21.13,21.13,0,0,0,3.55,6.95,35.62,35.62,0,0,0,7.88,7.88,41.46,41.46,0,0,0,6.33,3.09,34.61,34.61,0,0,0,10.66,2.32A30.31,30.31,0,0,0,187.53,258q10.18-4.32,14.21-10.66a56.16,56.16,0,0,0,5.56-10.66,39.86,39.86,0,0,0,1.7-12.51c-.1-4.22-.26-7.05-.46-8.5-.21-.61-2.42-.92-6.65-.92s-9.11.1-14.67.31-10.4.46-14.52.77Z"
        transform="translate(-88.5 -37.77)" />
    <path class="cls-6"
        d="M186.6,194.34a26.63,26.63,0,0,0-10.35-1.24,44.55,44.55,0,0,0-11,1.85q-3.39.93-8.34,5.26a67.77,67.77,0,0,0-8.8,9.26q-3.87,5-4.17,8a63.44,63.44,0,0,0-.16,12.05q.47,7.41,2,10.81c.62,1.24,2.26,2.83,4.94,4.79a42.51,42.51,0,0,0,9.58,5.1,35,35,0,0,0,10.2,2.47,26.66,26.66,0,0,0,10.34-1.55,62.3,62.3,0,0,0,9.89-4.32,71.92,71.92,0,0,0,6.64-4q2.79-2.16,7.11-10.19a31.14,31.14,0,0,0,4-16.07,14.56,14.56,0,0,0-4.18-9.89,43,43,0,0,0-9.42-7.87A57.58,57.58,0,0,0,186.6,194.34Z"
        transform="translate(-88.5 -37.77)" />
    <path class="cls-5"
        d="M188.15,292.27l-9.58,25.34,2.31,3.86a8.65,8.65,0,0,0,6,4.48c.62,0,2.52-.83,5.71-2.47s6.6-3.61,10.2-5.87a66.39,66.39,0,0,0,8.19-5.87q2.78-2.48,7.26-6.18t8.34-7.26c2.57-2.37,4.07-4.07,4.48-5.1q.93-2.47-1.55-6.18t-2.78-4.32q-.3-.31-6.18,1.08c-3.91.92-8.39,2.06-13.43,3.39s-9.48,2.53-13.29,3.56Z"
        transform="translate(-88.5 -37.77)" />
    <path class="cls-6"
        d="M184.75,276.21a27.65,27.65,0,0,0-8.5,9.42,30.71,30.71,0,0,0-3.24,11,28.27,28.27,0,0,0,1.08,13,36.23,36.23,0,0,0,4.32,9.12q2.33,3.24,3.25,3.24a42,42,0,0,0,5.87-2,34.18,34.18,0,0,0,8.34-4.79c1.23-1,3-2.47,5.41-4.32l6.33-4.94,2.78-2.17,3.86-2.93c2.58-2,4.48-3.35,5.72-4.17a40.25,40.25,0,0,0,4.79-5.25q3.24-4,2.62-6.49-1.23-6.18-12.36-11.43-5.55-2.48-14.36-2.32A28,28,0,0,0,184.75,276.21Z"
        transform="translate(-88.5 -37.77)" />
    <path class="cls-5"
        d="M118.63,255.51,95.77,290.73l.31,7.72,4.48.31q4.48.32,12.82-2.16,16.68-4.64,21.32-18.85a27.81,27.81,0,0,0,1.23-11.27,36.37,36.37,0,0,0-1.85-8.35c-.82-2.16-1.24-3.24-1.24-3.24Z"
        transform="translate(-88.5 -37.77)" />
    <path class="cls-6"
        d="M105,237.28s-.26,1.44-.77,4.33-1.14,6.23-1.86,10-1.39,7-2,9.73q-1.23,6.48-2.31,13.44t-1.7,11.43c-.41,3-.62,4.48-.62,4.48l3.71.15a84,84,0,0,0,8.65-.15,28.56,28.56,0,0,0,10.35-3.09,30.12,30.12,0,0,0,16.06-19.31q2.33-7.57-2.93-16.84-4.64-8-10.82-11a28.47,28.47,0,0,0-11-3.09Z"
        transform="translate(-88.5 -37.77)" />
    <path class="cls-5"
        d="M156,123.9l-23.17,2.47s-.56,1.49-1.7,4.48a36.74,36.74,0,0,0-2,11.27,25.62,25.62,0,0,0,3.39,13.6q5.26,10.5,11.59,14.52T164.36,174q9.27,0,15.29-4a34.13,34.13,0,0,0,9.42-9c2.27-3.3,3.5-6,3.71-8a45.72,45.72,0,0,0,.77-8,80.3,80.3,0,0,0-.31-10q-.47-4.79-1.39-6.33t-6.33-2.32c-3.61-.51-7.72-.92-12.36-1.23s-8.65-.57-12-.77Z"
        transform="translate(-88.5 -37.77)" />
    <path class="cls-6"
        d="M155.71,108.45a55.17,55.17,0,0,0-11.28,3.4q-6,2.48-10.35,10.5-4.64,8-4.48,14.52a53.69,53.69,0,0,0,1.08,10.51,21.43,21.43,0,0,0,4.33,6.18,46.25,46.25,0,0,0,7.57,6.64,40.49,40.49,0,0,0,6.33,3.86,54.18,54.18,0,0,0,7.1,1.24,65.73,65.73,0,0,0,10.05.46,21.61,21.61,0,0,0,7.87-1.39q1.86-.93,6.18-5.25a37.07,37.07,0,0,0,5.56-6.49,36.24,36.24,0,0,0,2.48-6.18q1.53-4.63,2.78-9.58a23.28,23.28,0,0,0,.92-7.72q-.3-4-5.1-8.5a107.8,107.8,0,0,0-8.49-7.26,34,34,0,0,0-10.35-4.17A29.53,29.53,0,0,0,155.71,108.45Z"
        transform="translate(-88.5 -37.77)" />
    <path class="cls-5"
        d="M108.13,328.42l-2.78,2.78q-2.79,2.78-5.56,6T96.7,341.7a24.12,24.12,0,0,0,1.85,8,18.22,18.22,0,0,0,6.49,8.34q1.54,1.23,5.71,1.85a59.3,59.3,0,0,0,8.65.62,20.54,20.54,0,0,0,7-.93,21.43,21.43,0,0,0,10.19-7.72,22.87,22.87,0,0,0,4.33-9.58,20,20,0,0,0-.93-10.5c-1.24-3.3-1.85-4.95-1.85-4.95Z"
        transform="translate(-88.5 -37.77)" />
    <path class="cls-6"
        d="M114.62,315.44q-10.2,1.55-13.91,7.73a29.71,29.71,0,0,0-4.32,12.35,20.47,20.47,0,0,0,1.23,10.35,13.92,13.92,0,0,0,11.74,9,36.92,36.92,0,0,0,9,.47,19.19,19.19,0,0,0,7.11-1.55,48.41,48.41,0,0,0,6.8-4.48q4.32-3.24,6.17-11.58,2.47-9.58-3.08-15.14a28,28,0,0,0-9-5.56A21.29,21.29,0,0,0,114.62,315.44Z"
        transform="translate(-88.5 -37.77)" />
    <path class="cls-7"
        d="M304.31,116.48q.31-3.7-5.1-5.41a42.84,42.84,0,0,0-9.42-2,62.61,62.61,0,0,0-8.5.61c-3,.42-4.48,2.06-4.48,4.95,0,2.68,1.55,4.37,4.64,5.1a68.36,68.36,0,0,0,7.41,1.39c1.44.2,3.35.36,5.72.46a17.68,17.68,0,0,0,6.64-.93A4.12,4.12,0,0,0,304.31,116.48Z"
        transform="translate(-88.5 -37.77)" />
    <path class="cls-7"
        d="M245.61,79.72q0-5.25-7.42-5-7.09.32-6.79,5.56a4,4,0,0,0,2.47,3.4,7.88,7.88,0,0,0,4.32.62c1.45-.2,3-.51,4.79-.93S245.61,81.78,245.61,79.72Z"
        transform="translate(-88.5 -37.77)" />
    <path class="cls-7"
        d="M218.42,89.6a4.69,4.69,0,0,0,.93-5.4,13.37,13.37,0,0,0-3.71-5.41,19,19,0,0,0-5.1-3.09c-1.95-.82-3.55-.72-4.78.31a4.58,4.58,0,0,0-1.55,4.32,10.34,10.34,0,0,0,1.85,5,24,24,0,0,0,5.41,4.94Q215.34,93,218.42,89.6Z"
        transform="translate(-88.5 -37.77)" />
    <path class="cls-7"
        d="M171.77,66.74q2.47-2.77-.93-7.1t-5.56-6.8a25,25,0,0,0-6.48-4.94q-4.34-2.48-6.8.3a5.09,5.09,0,0,0-1.08,5.87,16.34,16.34,0,0,0,4.17,5.57q1.54,1.55,4.63,4.32a23.27,23.27,0,0,0,6.34,4.17A4.61,4.61,0,0,0,171.77,66.74Z"
        transform="translate(-88.5 -37.77)" />
    <path class="cls-7"
        d="M330.57,163.44q3.4-.93,3.24-4.63c-.1-2.47-.25-4.64-.46-6.49a14.7,14.7,0,0,0-2.32-5.56,4.64,4.64,0,0,0-5.09-1.86,3.82,3.82,0,0,0-2.94,3.4,18,18,0,0,0,.15,6.18,30.53,30.53,0,0,0,2.17,6.49A4.08,4.08,0,0,0,330.57,163.44Z"
        transform="translate(-88.5 -37.77)" />
</svg>